<mxfile host="app.diagrams.net" modified="2021-08-27T04:16:40.926Z" agent="5.0 (Windows NT 10.0; Win64; x64) AppleWebKit/537.36 (KHTML, like Gecko) Chrome/92.0.4515.159 Safari/537.36" etag="jIUAzXjFU71AqqCviP21" version="15.0.2" type="github">
  <diagram id="10tIkQhipWnZuheLRNmn" name="Page-1">
    <mxGraphModel dx="1038" dy="608" grid="1" gridSize="10" guides="1" tooltips="1" connect="1" arrows="1" fold="1" page="1" pageScale="1" pageWidth="850" pageHeight="1100" math="0" shadow="0">
      <root>
        <mxCell id="0" />
        <mxCell id="1" parent="0" />
        <mxCell id="Jmf3_sfujvD6ndYQ71b7-1" value="Player" style="shape=umlActor;verticalLabelPosition=bottom;verticalAlign=top;html=1;outlineConnect=0;" vertex="1" parent="1">
          <mxGeometry x="80" y="260" width="30" height="60" as="geometry" />
        </mxCell>
        <mxCell id="Jmf3_sfujvD6ndYQ71b7-5" value="Start Game" style="ellipse;whiteSpace=wrap;html=1;" vertex="1" parent="1">
          <mxGeometry x="270" y="100" width="140" height="70" as="geometry" />
        </mxCell>
        <mxCell id="Jmf3_sfujvD6ndYQ71b7-6" value="Exit Game" style="ellipse;whiteSpace=wrap;html=1;" vertex="1" parent="1">
          <mxGeometry x="480" y="180" width="140" height="70" as="geometry" />
        </mxCell>
        <mxCell id="Jmf3_sfujvD6ndYQ71b7-7" value="Open Menu" style="ellipse;whiteSpace=wrap;html=1;" vertex="1" parent="1">
          <mxGeometry x="270" y="210" width="140" height="70" as="geometry" />
        </mxCell>
        <mxCell id="Jmf3_sfujvD6ndYQ71b7-10" value="&amp;lt;&amp;lt;Extends&amp;gt;&amp;gt;" style="endArrow=open;endSize=12;dashed=1;html=1;exitX=1;exitY=0.5;exitDx=0;exitDy=0;entryX=0;entryY=0.5;entryDx=0;entryDy=0;" edge="1" parent="1" source="Jmf3_sfujvD6ndYQ71b7-7" target="Jmf3_sfujvD6ndYQ71b7-6">
          <mxGeometry x="-0.088" y="-11" width="160" relative="1" as="geometry">
            <mxPoint x="340" y="310" as="sourcePoint" />
            <mxPoint x="500" y="310" as="targetPoint" />
            <Array as="points" />
            <mxPoint as="offset" />
          </mxGeometry>
        </mxCell>
        <mxCell id="Jmf3_sfujvD6ndYQ71b7-11" value="Pick Up Block" style="ellipse;whiteSpace=wrap;html=1;" vertex="1" parent="1">
          <mxGeometry x="270" y="300" width="140" height="70" as="geometry" />
        </mxCell>
        <mxCell id="Jmf3_sfujvD6ndYQ71b7-12" value="&amp;lt;&amp;lt;Extends&amp;gt;&amp;gt;" style="endArrow=open;endSize=12;dashed=1;html=1;exitX=1;exitY=0.5;exitDx=0;exitDy=0;entryX=0;entryY=0.5;entryDx=0;entryDy=0;" edge="1" parent="1" source="Jmf3_sfujvD6ndYQ71b7-11" target="Jmf3_sfujvD6ndYQ71b7-13">
          <mxGeometry x="-0.088" y="-11" width="160" relative="1" as="geometry">
            <mxPoint x="420" y="255" as="sourcePoint" />
            <mxPoint x="530" y="330" as="targetPoint" />
            <Array as="points" />
            <mxPoint as="offset" />
          </mxGeometry>
        </mxCell>
        <mxCell id="Jmf3_sfujvD6ndYQ71b7-13" value="Rotate Block" style="ellipse;whiteSpace=wrap;html=1;" vertex="1" parent="1">
          <mxGeometry x="470" y="300" width="140" height="70" as="geometry" />
        </mxCell>
        <mxCell id="Jmf3_sfujvD6ndYQ71b7-14" value="Drop Block" style="ellipse;whiteSpace=wrap;html=1;" vertex="1" parent="1">
          <mxGeometry x="470" y="410" width="140" height="70" as="geometry" />
        </mxCell>
        <mxCell id="Jmf3_sfujvD6ndYQ71b7-16" value="&amp;lt;&amp;lt;Include&amp;gt;&amp;gt;" style="endArrow=open;endSize=12;dashed=1;html=1;exitX=0;exitY=0.5;exitDx=0;exitDy=0;entryX=1;entryY=1;entryDx=0;entryDy=0;" edge="1" parent="1" source="Jmf3_sfujvD6ndYQ71b7-14" target="Jmf3_sfujvD6ndYQ71b7-11">
          <mxGeometry x="-0.088" y="-11" width="160" relative="1" as="geometry">
            <mxPoint x="420" y="345" as="sourcePoint" />
            <mxPoint x="540" y="340" as="targetPoint" />
            <Array as="points" />
            <mxPoint as="offset" />
          </mxGeometry>
        </mxCell>
        <mxCell id="Jmf3_sfujvD6ndYQ71b7-17" value="Move X,Y,Z" style="ellipse;whiteSpace=wrap;html=1;" vertex="1" parent="1">
          <mxGeometry x="260" y="515" width="140" height="70" as="geometry" />
        </mxCell>
        <mxCell id="Jmf3_sfujvD6ndYQ71b7-18" value="Move Camera To Stage" style="ellipse;whiteSpace=wrap;html=1;" vertex="1" parent="1">
          <mxGeometry x="480" y="515" width="140" height="70" as="geometry" />
        </mxCell>
        <mxCell id="Jmf3_sfujvD6ndYQ71b7-19" value="&amp;lt;&amp;lt;Include&amp;gt;&amp;gt;" style="endArrow=open;endSize=12;dashed=1;html=1;exitX=0;exitY=0.5;exitDx=0;exitDy=0;entryX=1;entryY=0.5;entryDx=0;entryDy=0;" edge="1" parent="1" source="Jmf3_sfujvD6ndYQ71b7-18" target="Jmf3_sfujvD6ndYQ71b7-17">
          <mxGeometry x="-0.088" y="-11" width="160" relative="1" as="geometry">
            <mxPoint x="450" y="455" as="sourcePoint" />
            <mxPoint x="399.4974746830583" y="369.74873734152914" as="targetPoint" />
            <Array as="points" />
            <mxPoint as="offset" />
          </mxGeometry>
        </mxCell>
        <mxCell id="Jmf3_sfujvD6ndYQ71b7-20" value="" style="endArrow=open;endFill=1;endSize=12;html=1;entryX=0;entryY=0.5;entryDx=0;entryDy=0;" edge="1" parent="1" source="Jmf3_sfujvD6ndYQ71b7-1" target="Jmf3_sfujvD6ndYQ71b7-17">
          <mxGeometry width="160" relative="1" as="geometry">
            <mxPoint x="340" y="390" as="sourcePoint" />
            <mxPoint x="500" y="390" as="targetPoint" />
          </mxGeometry>
        </mxCell>
        <mxCell id="Jmf3_sfujvD6ndYQ71b7-21" value="" style="endArrow=open;endFill=1;endSize=12;html=1;entryX=0;entryY=0.5;entryDx=0;entryDy=0;exitX=1;exitY=0.3333333333333333;exitDx=0;exitDy=0;exitPerimeter=0;" edge="1" parent="1" source="Jmf3_sfujvD6ndYQ71b7-1" target="Jmf3_sfujvD6ndYQ71b7-11">
          <mxGeometry width="160" relative="1" as="geometry">
            <mxPoint x="120" y="323.6363636363636" as="sourcePoint" />
            <mxPoint x="270" y="560" as="targetPoint" />
          </mxGeometry>
        </mxCell>
        <mxCell id="Jmf3_sfujvD6ndYQ71b7-22" value="" style="endArrow=open;endFill=1;endSize=12;html=1;entryX=0;entryY=0.5;entryDx=0;entryDy=0;" edge="1" parent="1" target="Jmf3_sfujvD6ndYQ71b7-7">
          <mxGeometry width="160" relative="1" as="geometry">
            <mxPoint x="110" y="280" as="sourcePoint" />
            <mxPoint x="280" y="345" as="targetPoint" />
          </mxGeometry>
        </mxCell>
        <mxCell id="Jmf3_sfujvD6ndYQ71b7-23" value="" style="endArrow=open;endFill=1;endSize=12;html=1;entryX=0;entryY=0.5;entryDx=0;entryDy=0;exitX=0.75;exitY=0.1;exitDx=0;exitDy=0;exitPerimeter=0;" edge="1" parent="1" source="Jmf3_sfujvD6ndYQ71b7-1" target="Jmf3_sfujvD6ndYQ71b7-5">
          <mxGeometry width="160" relative="1" as="geometry">
            <mxPoint x="120" y="290" as="sourcePoint" />
            <mxPoint x="280" y="255" as="targetPoint" />
          </mxGeometry>
        </mxCell>
        <mxCell id="Jmf3_sfujvD6ndYQ71b7-24" value="&amp;lt;&amp;lt;Extends&amp;gt;&amp;gt;" style="endArrow=open;endSize=12;dashed=1;html=1;exitX=1;exitY=1;exitDx=0;exitDy=0;" edge="1" parent="1" source="Jmf3_sfujvD6ndYQ71b7-17" target="Jmf3_sfujvD6ndYQ71b7-25">
          <mxGeometry x="-0.088" y="-11" width="160" relative="1" as="geometry">
            <mxPoint x="420" y="345" as="sourcePoint" />
            <mxPoint x="450" y="630" as="targetPoint" />
            <Array as="points" />
            <mxPoint as="offset" />
          </mxGeometry>
        </mxCell>
        <mxCell id="Jmf3_sfujvD6ndYQ71b7-25" value="Move onto block" style="ellipse;whiteSpace=wrap;html=1;" vertex="1" parent="1">
          <mxGeometry x="480" y="610" width="140" height="70" as="geometry" />
        </mxCell>
        <mxCell id="Jmf3_sfujvD6ndYQ71b7-26" value="&amp;lt;&amp;lt;Include&amp;gt;&amp;gt;" style="endArrow=open;endSize=12;dashed=1;html=1;entryX=1;entryY=0.5;entryDx=0;entryDy=0;exitX=0;exitY=1;exitDx=0;exitDy=0;" edge="1" parent="1" source="Jmf3_sfujvD6ndYQ71b7-27" target="Jmf3_sfujvD6ndYQ71b7-14">
          <mxGeometry x="-0.088" y="-11" width="160" relative="1" as="geometry">
            <mxPoint x="680" y="430" as="sourcePoint" />
            <mxPoint x="399.4974746830583" y="369.74873734152914" as="targetPoint" />
            <Array as="points" />
            <mxPoint as="offset" />
          </mxGeometry>
        </mxCell>
        <mxCell id="Jmf3_sfujvD6ndYQ71b7-27" value="Stack Block" style="ellipse;whiteSpace=wrap;html=1;" vertex="1" parent="1">
          <mxGeometry x="660" y="370" width="140" height="70" as="geometry" />
        </mxCell>
        <mxCell id="Jmf3_sfujvD6ndYQ71b7-28" value="&amp;lt;&amp;lt;Include&amp;gt;&amp;gt;" style="endArrow=open;endSize=12;dashed=1;html=1;entryX=1;entryY=0.5;entryDx=0;entryDy=0;exitX=0;exitY=0;exitDx=0;exitDy=0;" edge="1" parent="1" source="Jmf3_sfujvD6ndYQ71b7-27" target="Jmf3_sfujvD6ndYQ71b7-13">
          <mxGeometry x="-0.088" y="-11" width="160" relative="1" as="geometry">
            <mxPoint x="690.5025253169417" y="439.74873734152925" as="sourcePoint" />
            <mxPoint x="620" y="455" as="targetPoint" />
            <Array as="points" />
            <mxPoint as="offset" />
          </mxGeometry>
        </mxCell>
        <mxCell id="Jmf3_sfujvD6ndYQ71b7-30" value="&amp;lt;&amp;lt;Include&amp;gt;&amp;gt;" style="endArrow=open;endSize=12;dashed=1;html=1;exitX=0.5;exitY=1;exitDx=0;exitDy=0;" edge="1" parent="1" source="Jmf3_sfujvD6ndYQ71b7-27">
          <mxGeometry x="-0.088" y="-11" width="160" relative="1" as="geometry">
            <mxPoint x="690.5025253169417" y="439.74873734152925" as="sourcePoint" />
            <mxPoint x="622" y="645" as="targetPoint" />
            <Array as="points" />
            <mxPoint as="offset" />
          </mxGeometry>
        </mxCell>
      </root>
    </mxGraphModel>
  </diagram>
</mxfile>
